<svg xmlns="http://www.w3.org/2000/svg" xmlns:xlink="http://www.w3.org/1999/xlink" viewBox="0,0,256,256" width="150px" height="150px" fill-rule="nonzero"><g fill="#f61a1a" fill-rule="nonzero" stroke="none" stroke-width="1" stroke-linecap="butt" stroke-linejoin="miter" stroke-miterlimit="10" stroke-dasharray="" stroke-dashoffset="0" font-family="none" font-weight="none" font-size="none" text-anchor="none" style="mix-blend-mode: normal"><g transform="scale(5.12,5.12)"><path d="M20.06641,44.02734c-0.03906,0 -0.07812,0 -0.12109,-0.00391c-0.07812,-0.00391 -0.14844,-0.01172 -0.21875,-0.02344c-9.36328,-0.07812 -14.72656,-4.07422 -14.72656,-11c0,-8.52344 5.62109,-13.08594 17.16016,-13.875c-1.37891,-0.62109 -2.91797,-1.14062 -4.23437,-1.125c-1.83594,0 -4.03906,0.99219 -5.8125,1.79297l-0.36719,0.16797c-2.3125,1.03906 -4.6875,1.10547 -6.71484,1.03906c-0.84375,-0.02734 -2.4375,-0.47656 -3.54687,-1.14453c-0.35156,-0.21094 -0.53906,-0.61328 -0.47266,-1.01953c0.06641,-0.40234 0.375,-0.72656 0.77734,-0.8125c3.51953,-0.75781 4.75,-2.25391 6.45313,-4.32422c1.63281,-1.98047 3.66016,-4.44531 8.33594,-6.60547c0.44922,-0.20312 0.97266,-0.05859 1.25,0.34766c0.27344,0.40625 0.21484,0.94922 -0.14453,1.28906c-0.51953,0.49219 -1.01953,1.02344 -1.46875,1.54688c4.94531,-2.23828 8.91016,-3.06641 12.76953,-3.87109c0.60156,-0.125 1.19922,-0.25391 1.80078,-0.38281c0.50391,-0.10937 1.00781,0.18359 1.16406,0.67578c0.15625,0.48828 -0.08594,1.01953 -0.55859,1.22266c-3.53516,1.5 -6.25781,2.83203 -8.87891,4.37891c1.44922,-0.16797 3.03906,-0.30078 4.48828,-0.30078c3.94922,0 6.59375,1.91406 8.92188,3.60156c1.77734,1.28906 3.3125,2.39844 5.07813,2.39844c1.53125,0 4.58203,-1.16797 5.88672,-1.66797c0.94531,-0.35937 1.22656,-0.46875 1.67969,-0.15625c0.26953,0.18359 0.43359,0.49609 0.43359,0.82422c0,0.24609 -0.08984,0.48438 -0.25391,0.66797l-0.23047,0.26172c-1.32422,1.51563 -4.41797,5.07031 -11.51562,5.07031c-1.61328,0 -4.39844,-0.63672 -6.85547,-1.19531c-1.71484,-0.39453 -3.49219,-0.79687 -4.14844,-0.80469c-0.02734,0 -0.05469,0 -0.08594,0c-1.43359,0.01563 -6.82812,0.69531 -10.14453,3.98438c-1.83594,1.82031 -2.76562,4.17969 -2.76562,7.01563c0,8.80469 6.375,9.90625 7.0625,10c8.90625,-0.02344 9.9375,-5.71484 9.9375,-10c0,-1.42969 -0.60547,-2.85547 -1.62109,-3.81641c-0.85937,-0.8125 -1.25,-1.18359 -3.37891,-1.18359c-0.03906,0 -4,0.08203 -4,3c0,0.26953 0.18359,0.47656 0.62891,0.92188c0.57813,0.57031 1.37109,1.35547 1.37109,2.73047c0,1.91016 -1.54687,3.34766 -3.59766,3.34766c-2.13281,0 -4.39844,-1.67187 -4.39844,-4.76953c0,-0.92187 0.18359,-1.87891 0.50781,-2.62891c0.46484,-1.07812 2.52734,-4.60156 9.48828,-4.60156c5.05078,0 7.32031,0.82813 8.98047,1.43359c0.65234,0.23828 1.16797,0.42578 1.69922,0.49609c1.97266,0.25 4.10156,-0.14844 5.98047,-0.49609c1.24609,-0.23437 2.32031,-0.43359 3.23828,-0.43359c0.47266,0 0.88281,0.33203 0.98047,0.79688c0.09375,0.46484 -0.14844,0.92969 -0.58203,1.12109c-0.92578,0.39844 -1.76172,1.49609 -2.64844,2.66016c-1.35156,1.77734 -3.00781,3.94531 -5.72656,4.35547c-0.27344,1.73047 -1.25,3.40625 -2.23437,4.6875c0.38672,-0.10156 0.75781,-0.21094 1.11328,-0.31641c0.32813,-0.10156 0.64453,-0.19141 0.94531,-0.27344c0.46094,-0.12109 0.94922,0.10547 1.15625,0.53906c0.20703,0.43359 0.07422,0.95313 -0.3125,1.23828c-1.61719,1.17969 -5.99609,3.14844 -17.21484,3.19141c-0.08984,0.01953 -0.19141,0.02734 -0.30859,0.02734z"></path></g></g></svg>